# MagicaVoxel @ Ephtracy

# group
o 

# material
mtllib Transporter.mtl
usemtl palette

# normals
vn -1 0 0
vn 1 0 0
vn 0 0 1
vn 0 0 -1
vn 0 -1 0
vn 0 1 0

# texcoords
vt 0.958984 0.5
vt 0.970703 0.5
vt 0.982422 0.5
vt 0.986328 0.5
vt 0.994141 0.5

# verts
v -0.3 0 0.5
v -0.3 0 0.4
v -0.3 0.5 0.4
v -0.3 0.5 -2
v -0.3 1.1 0.5
v -0.3 1.1 -2
v 1.3 0.5 -0.2
v 1.3 0.5 -0.4
v 1.3 0.9 -0.2
v 1.3 0.9 -0.4
v 1 0.5 -0.2
v 1 0.5 -0.4
v 1 0.9 -0.2
v 1 0.9 -0.4
v 1.5 0 0.5
v 1.5 0 0.4
v 1.5 0.5 0.4
v 1.5 0.5 -2
v 1.5 1.1 0.5
v 1.5 1.1 -2
v -0.3 0 0.5
v -0.3 1.1 0.5
v 2.98023e-008 0.2 0.5
v 2.98023e-008 1.1 0.5
v 0.1 0.6 0.5
v 0.1 0.7 0.5
v 0.1 0.8 0.5
v 0.1 0.9 0.5
v 0.2 0.6 0.5
v 0.2 0.7 0.5
v 0.2 0.8 0.5
v 0.2 0.9 0.5
v 0.3 0.4 0.5
v 0.3 0.5 0.5
v 0.3 0.7 0.5
v 0.3 0.8 0.5
v 0.4 0.3 0.5
v 0.4 0.4 0.5
v 0.4 0.5 0.5
v 0.5 0.3 0.5
v 0.5 0.4 0.5
v 0.7 0.5 0.5
v 0.7 0.6 0.5
v 0.8 0.5 0.5
v 0.8 0.6 0.5
v 0.8 0.7 0.5
v 0.9 0.6 0.5
v 0.9 0.7 0.5
v 0.9 0.8 0.5
v 1 0.7 0.5
v 1 0.8 0.5
v 1.2 0.2 0.5
v 1.2 1.1 0.5
v 1.5 0 0.5
v 1.5 1.1 0.5
v 1 0.5 -0.4
v 1 0.9 -0.4
v 1.3 0.5 -0.4
v 1.3 0.9 -0.4
v -0.3 0 0.4
v -0.3 0.5 0.4
v 2.98023e-008 0.2 0.4
v 2.98023e-008 0.5 0.4
v 0.3 0.4 0.4
v 0.3 0.5 0.4
v 0.4 0.3 0.4
v 0.4 0.4 0.4
v 0.4 0.5 0.4
v 0.5 0.3 0.4
v 0.5 0.4 0.4
v 1.2 0.2 0.4
v 1.2 0.5 0.4
v 1.5 0 0.4
v 1.5 0.5 0.4
v 1 0.5 -0.2
v 1 0.9 -0.2
v 1.3 0.5 -0.2
v 1.3 0.9 -0.2
v -0.3 0.5 -2
v -0.3 1.1 -2
v 1.5 0.5 -2
v 1.5 1.1 -2
v -0.3 0 0.5
v 1.5 0 0.5
v -0.3 0 0.4
v 1.5 0 0.4
v -0.3 0.5 0.4
v 2.98023e-008 0.5 0.4
v 0.3 0.5 0.4
v 0.4 0.5 0.4
v 1.2 0.5 0.4
v 1.5 0.5 0.4
v 1 0.5 -0.2
v 1.3 0.5 -0.2
v 1 0.5 -0.4
v 1.3 0.5 -0.4
v -0.3 0.5 -2
v 1.5 0.5 -2
v 1 0.9 -0.2
v 1.3 0.9 -0.2
v 1 0.9 -0.4
v 1.3 0.9 -0.4
v -0.3 1.1 0.5
v 2.98023e-008 1.1 0.5
v 1.2 1.1 0.5
v 1.5 1.1 0.5
v 2.98023e-008 1.1 0.2
v 0.2 1.1 0.2
v 2.98023e-008 1.1 0.1
v 0.1 1.1 0.1
v 0.2 1.1 0.1
v 0.3 1.1 0.1
v 0.1 1.1 0
v 0.2 1.1 0
v 0.3 1.1 0
v 0.4 1.1 0
v 0.2 1.1 -0.1
v 0.4 1.1 -0.1
v 0.9 1.1 -0.1
v 1.1 1.1 -0.1
v 0.8 1.1 -0.2
v 0.9 1.1 -0.2
v 1 1.1 -0.2
v 1.1 1.1 -0.2
v 0.7 1.1 -0.3
v 0.8 1.1 -0.3
v 0.9 1.1 -0.3
v 1 1.1 -0.3
v 0.7 1.1 -0.4
v 0.9 1.1 -0.4
v 2.98023e-008 1.1 -0.5
v 0.4 1.1 -0.5
v 0.8 1.1 -0.5
v 1.2 1.1 -0.5
v 2.98023e-008 1.1 -0.6
v 0.4 1.1 -0.6
v 0.8 1.1 -0.6
v 1.2 1.1 -0.6
v 0.9 1.1 -0.8
v 1.1 1.1 -0.8
v 0.8 1.1 -0.9
v 0.9 1.1 -0.9
v 1 1.1 -0.9
v 1.1 1.1 -0.9
v 0.7 1.1 -1.1
v 0.8 1.1 -1.1
v 0.9 1.1 -1.1
v 1 1.1 -1.1
v 0.1 1.1 -1.2
v 0.3 1.1 -1.2
v 0.8 1.1 -1.2
v 0.9 1.1 -1.2
v 0.1 1.1 -1.3
v 0.2 1.1 -1.3
v 0.3 1.1 -1.3
v 0.4 1.1 -1.3
v 0.7 1.1 -1.3
v 0.8 1.1 -1.3
v 0.4 1.1 -1.4
v 0.5 1.1 -1.4
v 0.2 1.1 -1.5
v 0.3 1.1 -1.5
v 0.3 1.1 -1.6
v 0.4 1.1 -1.6
v 0.4 1.1 -1.7
v 0.5 1.1 -1.7
v 2.98023e-008 1.1 -1.8
v 1.2 1.1 -1.8
v -0.3 1.1 -2
v 1.5 1.1 -2

# faces
f 3/5/1 2/5/1 1/5/1
f 5/5/1 3/5/1 1/5/1
f 5/5/1 4/5/1 3/5/1
f 6/5/1 4/5/1 5/5/1
f 9/5/1 8/5/1 7/5/1
f 10/5/1 8/5/1 9/5/1
f 11/5/2 12/5/2 13/5/2
f 13/5/2 12/5/2 14/5/2
f 15/5/2 16/5/2 17/5/2
f 15/5/2 17/5/2 19/5/2
f 17/5/2 18/5/2 19/5/2
f 19/5/2 18/5/2 20/5/2
f 23/5/3 22/5/3 21/5/3
f 24/5/3 22/5/3 23/5/3
f 25/1/3 24/1/3 23/1/3
f 26/1/3 24/1/3 25/1/3
f 27/1/3 24/1/3 26/1/3
f 28/1/3 24/1/3 27/1/3
f 29/1/3 25/1/3 23/1/3
f 29/2/3 26/2/3 25/2/3
f 30/1/3 27/1/3 26/1/3
f 30/2/3 26/2/3 29/2/3
f 31/2/3 28/2/3 27/2/3
f 31/1/3 27/1/3 30/1/3
f 32/1/3 24/1/3 28/1/3
f 32/2/3 28/2/3 31/2/3
f 33/1/3 30/1/3 29/1/3
f 33/1/3 29/1/3 23/1/3
f 34/1/3 30/1/3 33/1/3
f 35/2/3 31/2/3 30/2/3
f 35/1/3 30/1/3 34/1/3
f 36/1/3 32/1/3 31/1/3
f 36/2/3 31/2/3 35/2/3
f 37/1/3 33/1/3 23/1/3
f 38/2/3 34/2/3 33/2/3
f 38/1/3 33/1/3 37/1/3
f 39/1/3 35/1/3 34/1/3
f 39/2/3 34/2/3 38/2/3
f 39/1/3 36/1/3 35/1/3
f 40/1/3 37/1/3 23/1/3
f 40/2/3 38/2/3 37/2/3
f 41/1/3 39/1/3 38/1/3
f 41/2/3 38/2/3 40/2/3
f 42/1/3 36/1/3 39/1/3
f 42/1/3 39/1/3 41/1/3
f 42/1/3 41/1/3 40/1/3
f 43/1/3 36/1/3 42/1/3
f 44/1/3 42/1/3 40/1/3
f 44/2/3 43/2/3 42/2/3
f 45/1/3 36/1/3 43/1/3
f 45/2/3 43/2/3 44/2/3
f 46/1/3 36/1/3 45/1/3
f 47/1/3 45/1/3 44/1/3
f 47/2/3 46/2/3 45/2/3
f 48/1/3 36/1/3 46/1/3
f 48/2/3 46/2/3 47/2/3
f 49/1/3 32/1/3 36/1/3
f 49/1/3 36/1/3 48/1/3
f 50/1/3 48/1/3 47/1/3
f 50/2/3 49/2/3 48/2/3
f 51/1/3 32/1/3 49/1/3
f 51/2/3 49/2/3 50/2/3
f 52/5/3 23/5/3 21/5/3
f 52/1/3 50/1/3 47/1/3
f 52/1/3 51/1/3 50/1/3
f 52/1/3 47/1/3 44/1/3
f 52/1/3 44/1/3 40/1/3
f 52/1/3 40/1/3 23/1/3
f 53/1/3 32/1/3 51/1/3
f 53/1/3 51/1/3 52/1/3
f 53/1/3 24/1/3 32/1/3
f 54/5/3 52/5/3 21/5/3
f 54/5/3 53/5/3 52/5/3
f 55/5/3 53/5/3 54/5/3
f 58/5/3 57/5/3 56/5/3
f 59/5/3 57/5/3 58/5/3
f 60/5/4 61/5/4 62/5/4
f 62/5/4 61/5/4 63/5/4
f 62/1/4 63/1/4 64/1/4
f 64/1/4 63/1/4 65/1/4
f 62/1/4 64/1/4 66/1/4
f 64/2/4 65/2/4 67/2/4
f 66/1/4 64/1/4 67/1/4
f 67/2/4 65/2/4 68/2/4
f 62/1/4 66/1/4 69/1/4
f 66/2/4 67/2/4 69/2/4
f 67/1/4 68/1/4 70/1/4
f 69/2/4 67/2/4 70/2/4
f 60/5/4 62/5/4 71/5/4
f 62/1/4 69/1/4 71/1/4
f 69/1/4 70/1/4 71/1/4
f 70/1/4 68/1/4 72/1/4
f 71/1/4 70/1/4 72/1/4
f 60/5/4 71/5/4 73/5/4
f 71/5/4 72/5/4 73/5/4
f 73/5/4 72/5/4 74/5/4
f 75/5/4 76/5/4 77/5/4
f 77/5/4 76/5/4 78/5/4
f 79/5/4 80/5/4 81/5/4
f 81/5/4 80/5/4 82/5/4
f 85/5/5 84/5/5 83/5/5
f 86/5/5 84/5/5 85/5/5
f 93/5/5 88/5/5 87/5/5
f 93/5/5 92/5/5 91/5/5
f 93/5/5 91/5/5 90/5/5
f 93/5/5 90/5/5 89/5/5
f 93/5/5 89/5/5 88/5/5
f 94/5/5 92/5/5 93/5/5
f 95/5/5 93/5/5 87/5/5
f 96/5/5 92/5/5 94/5/5
f 97/5/5 95/5/5 87/5/5
f 97/5/5 96/5/5 95/5/5
f 98/5/5 92/5/5 96/5/5
f 98/5/5 96/5/5 97/5/5
f 101/5/5 100/5/5 99/5/5
f 102/5/5 100/5/5 101/5/5
f 103/5/6 104/5/6 107/5/6
f 104/1/6 105/1/6 107/1/6
f 107/1/6 105/1/6 108/1/6
f 103/5/6 107/5/6 109/5/6
f 107/4/6 108/4/6 109/4/6
f 109/4/6 108/4/6 110/4/6
f 108/1/6 105/1/6 111/1/6
f 110/4/6 108/4/6 111/4/6
f 111/1/6 105/1/6 112/1/6
f 109/1/6 110/1/6 113/1/6
f 110/4/6 111/4/6 113/4/6
f 111/4/6 112/4/6 113/4/6
f 113/4/6 112/4/6 114/4/6
f 112/1/6 105/1/6 115/1/6
f 114/4/6 112/4/6 115/4/6
f 115/1/6 105/1/6 116/1/6
f 113/1/6 114/1/6 117/1/6
f 114/4/6 115/4/6 117/4/6
f 115/4/6 116/4/6 117/4/6
f 116/1/6 105/1/6 118/1/6
f 117/4/6 116/4/6 118/4/6
f 118/1/6 105/1/6 119/1/6
f 119/1/6 105/1/6 120/1/6
f 117/1/6 118/1/6 121/1/6
f 118/1/6 119/1/6 121/1/6
f 119/4/6 120/4/6 122/4/6
f 121/1/6 119/1/6 122/1/6
f 122/4/6 120/4/6 123/4/6
f 120/1/6 105/1/6 124/1/6
f 123/4/6 120/4/6 124/4/6
f 117/1/6 121/1/6 125/1/6
f 122/4/6 123/4/6 126/4/6
f 125/1/6 121/1/6 126/1/6
f 121/4/6 122/4/6 126/4/6
f 126/4/6 123/4/6 127/4/6
f 123/1/6 124/1/6 128/1/6
f 127/4/6 123/4/6 128/4/6
f 117/1/6 125/1/6 129/1/6
f 126/4/6 127/4/6 129/4/6
f 125/4/6 126/4/6 129/4/6
f 127/1/6 128/1/6 130/1/6
f 129/4/6 127/4/6 130/4/6
f 113/1/6 117/1/6 131/1/6
f 103/5/6 109/5/6 131/5/6
f 129/1/6 130/1/6 131/1/6
f 117/1/6 129/1/6 131/1/6
f 109/1/6 113/1/6 131/1/6
f 131/1/6 130/1/6 132/1/6
f 132/1/6 130/1/6 133/1/6
f 105/5/6 106/5/6 134/5/6
f 133/1/6 130/1/6 134/1/6
f 130/1/6 128/1/6 134/1/6
f 124/1/6 105/1/6 134/1/6
f 128/1/6 124/1/6 134/1/6
f 131/3/6 132/3/6 135/3/6
f 103/5/6 131/5/6 135/5/6
f 132/5/6 133/5/6 136/5/6
f 135/3/6 132/3/6 136/3/6
f 133/3/6 134/3/6 137/3/6
f 136/5/6 133/5/6 137/5/6
f 134/5/6 106/5/6 138/5/6
f 137/3/6 134/3/6 138/3/6
f 136/1/6 137/1/6 139/1/6
f 135/1/6 136/1/6 139/1/6
f 137/1/6 138/1/6 139/1/6
f 139/1/6 138/1/6 140/1/6
f 135/1/6 139/1/6 141/1/6
f 139/4/6 140/4/6 142/4/6
f 141/1/6 139/1/6 142/1/6
f 142/4/6 140/4/6 143/4/6
f 140/1/6 138/1/6 144/1/6
f 143/4/6 140/4/6 144/4/6
f 135/1/6 141/1/6 145/1/6
f 142/4/6 143/4/6 146/4/6
f 145/1/6 141/1/6 146/1/6
f 141/4/6 142/4/6 146/4/6
f 146/4/6 143/4/6 147/4/6
f 143/1/6 144/1/6 148/1/6
f 147/4/6 143/4/6 148/4/6
f 135/1/6 145/1/6 149/1/6
f 149/1/6 145/1/6 150/1/6
f 146/4/6 147/4/6 151/4/6
f 145/4/6 146/4/6 151/4/6
f 147/1/6 148/1/6 152/1/6
f 151/4/6 147/4/6 152/4/6
f 149/4/6 150/4/6 153/4/6
f 135/1/6 149/1/6 153/1/6
f 153/4/6 150/4/6 154/4/6
f 150/1/6 145/1/6 155/1/6
f 154/4/6 150/4/6 155/4/6
f 155/1/6 145/1/6 156/1/6
f 145/4/6 151/4/6 157/4/6
f 156/1/6 145/1/6 157/1/6
f 151/1/6 152/1/6 158/1/6
f 157/4/6 151/4/6 158/4/6
f 155/4/6 156/4/6 159/4/6
f 156/1/6 157/1/6 159/1/6
f 157/1/6 158/1/6 159/1/6
f 154/4/6 155/4/6 159/4/6
f 159/1/6 158/1/6 160/1/6
f 153/1/6 154/1/6 161/1/6
f 154/4/6 159/4/6 161/4/6
f 159/4/6 160/4/6 161/4/6
f 161/4/6 160/4/6 162/4/6
f 161/1/6 162/1/6 163/1/6
f 162/4/6 160/4/6 163/4/6
f 163/4/6 160/4/6 164/4/6
f 163/1/6 164/1/6 165/1/6
f 164/4/6 160/4/6 165/4/6
f 160/1/6 158/1/6 166/1/6
f 165/4/6 160/4/6 166/4/6
f 103/5/6 135/5/6 167/5/6
f 163/1/6 165/1/6 167/1/6
f 165/1/6 166/1/6 167/1/6
f 161/1/6 163/1/6 167/1/6
f 153/1/6 161/1/6 167/1/6
f 135/1/6 153/1/6 167/1/6
f 166/1/6 158/1/6 168/1/6
f 167/1/6 166/1/6 168/1/6
f 138/5/6 106/5/6 168/5/6
f 152/1/6 148/1/6 168/1/6
f 158/1/6 152/1/6 168/1/6
f 144/1/6 138/1/6 168/1/6
f 148/1/6 144/1/6 168/1/6
f 103/5/6 167/5/6 169/5/6
f 167/5/6 168/5/6 169/5/6
f 168/5/6 106/5/6 170/5/6
f 169/5/6 168/5/6 170/5/6
